PathFileType	4	(X/Y/Z)	Patient4_TMGait_0pt5_01_right_40.trc.trc
DataRate	CameraRate	NumFrames	NumMarkers	Units	OrigDataRate	OrigDataStartFrame	OrigNumFrames
74.866310160428	74.866310160428	4	33	mm	74.866310160428	18	       141
Frame#	Time	L.ASIS			Sacral			L.Shoulder			Chest			R.Shoulder			Neck			R.ASIS			R.Thigh.Superior			R.Thigh.Lateral			R.Thigh.Inferior			R.Patella			L.Thigh.Superior			L.Thigh.Lateral			L.Thigh.Inferior			L.Patella			L.Shank.Superior			L.Shank.Lateral			L.Shank.Inferior			R.Shank.Superior			R.Shank.Lateral			R.Shank.Inferior			R.Heel			R.Midfoot.Superior			R.Midfoot.Lateral			R.Toe			L.Heel			L.Midfoot.Lateral			L.Midfoot.Superior			L.Toe			L.Elbow			L.Wrist			R.Elbow			R.Wrist			
		X1	Y1	Z1	X2	Y2	Z2	X3	Y3	Z3	X4	Y4	Z4	X5	Y5	Z5	X6	Y6	Z6	X7	Y7	Z7	X8	Y8	Z8	X9	Y9	Z9	X10	Y10	Z10	X11	Y11	Z11	X12	Y12	Z12	X13	Y13	Z13	X14	Y14	Z14	X15	Y15	Z15	X16	Y16	Z16	X17	Y17	Z17	X18	Y18	Z18	X19	Y19	Z19	X20	Y20	Z20	X21	Y21	Z21	X22	Y22	Z22	X23	Y23	Z23	X24	Y24	Z24	X25	Y25	Z25	X26	Y26	Z26	X27	Y27	Z27	X28	Y28	Z28	X29	Y29	Z29	X30	Y30	Z30	X31	Y31	Z31	X32	Y32	Z32	X33	Y33	Z33	

18	52.877071428571	779.434478107471	960.299144175002	304.223027054029	555.470624069395	1009.314939915491	442.037758569006	755.841813996623	1432.582198714341	268.162887061894	838.261956952053	1366.489501244429	441.842097220982	736.601428052697	1445.140501567019	605.156045471182	735.713100489932	1497.114447625472	416.601863199737	769.930382595182	946.987064897567	578.834703912870	841.054130935054	769.827781221122	554.470351530382	792.904254308045	650.184048404476	625.771972782432	880.494872915258	608.128166223288	546.635462005850	911.772935124991	522.636697860577	566.018157055704	784.849572345601	735.081530440362	334.149556326239	672.240169093031	638.514968628936	269.967764504853	733.238596015021	548.000413748070	336.365202306595	719.638379249935	483.015694870321	346.550778955096	691.766004744604	416.019767163099	339.221618895436	599.098338125966	303.437725485924	290.375709544402	646.551876106721	193.444991444493	367.038273224644	890.413258808978	435.296541933909	574.451668889161	829.228191779548	324.560731110317	635.423541419289	894.606274772031	235.075021598330	584.904887236554	792.764672650693	50.412063063649	553.262951416637	954.422479620526	122.560268066479	597.352553194092	875.656211525653	46.210701384941	629.048561572461	1078.628026064307	85.192355653769	626.825207328053	514.859250703856	38.386277386964	414.684365704178	588.349711623558	34.529210549646	333.562708340359	672.742914871456	95.483707450801	358.401366617907	800.401085428786	42.216677801766	331.422669142043	837.462078552020	1101.291321816543	125.185191879142	1074.641571147198	992.547171361668	120.000451554408	576.936969661032	1141.513558763301	712.749105427282	530.082101157562	885.976048405086	733.571587055226	
19	52.890428571429	779.688210314643	959.318947304835	305.176971879408	555.805124721148	1008.132765944486	443.174737103195	755.534233938854	1431.507073001348	269.963034167534	838.272133409992	1365.239775484710	443.407577752132	736.771485853583	1443.628965087935	606.921354068724	735.704331018707	1495.928556570360	418.462868745264	770.164275503089	945.229191974941	579.871945236089	839.374307969682	766.414501801148	555.755866349566	788.788370753572	647.144461638428	626.242814366794	876.354334495536	604.530974699894	547.433489377643	906.881658190790	520.480054800471	565.973281897943	783.322036400811	733.774943945692	334.960578010088	669.903587250468	638.096043529508	270.447197672048	729.758961658017	547.081909971524	337.000596452054	715.636634741160	482.097601428496	346.990671243111	687.227400389972	415.404925260911	339.569533339746	593.814930153512	303.475904087010	290.474446920536	640.485366919153	193.122765790472	367.135779338416	887.652796765199	433.233292462287	574.435489391678	828.877578742243	320.749890083093	634.604417938014	897.038357416817	233.069830366626	584.301583375481	799.798886825021	46.553375115520	551.607350503720	960.041776541511	121.454402276448	596.763172307247	882.194294662370	44.078450878538	628.020487256766	1084.628221197811	85.975282906564	627.265106107349	508.104750155748	38.348923659438	414.670028361870	581.573049405377	34.506434414677	333.548536288175	665.951166950343	95.428631770718	358.451670008281	793.610860403317	42.169801169155	331.453530856665	836.582821672698	1099.791395721032	127.334847877250	1073.929753292145	991.510347608517	121.799368561263	578.276535545625	1139.288392655062	714.396964314718	532.560003845613	883.487478542864	734.797829985843	
20	52.903785714286	780.078575388365	958.340530377828	306.201681886278	556.311288335751	1006.894902155546	444.541627741593	755.117820419273	1430.467827636480	272.006360722312	838.328147010671	1364.023569338688	445.136303629024	737.027024119475	1442.018699464592	608.940496496038	735.654447426426	1494.731460470987	420.602327513166	770.715569468189	943.417177304373	580.953407708149	838.278875998935	763.150934835983	557.128596830944	785.164653858405	644.136267161087	626.565270215279	872.916386361625	601.151815986329	548.291153846226	902.444666387575	518.196335445446	565.895242637588	782.060400033549	732.458005853932	335.774430911887	667.831520524043	637.647856288105	271.070977667949	726.652337469248	546.133846243007	337.695747051413	712.025437673388	481.079647647724	347.550105937883	683.049341425850	414.709337544379	340.014764140292	588.744827336099	303.552421240947	290.680763219383	634.535881032561	192.763393948388	367.262037010602	884.809066932150	430.913484572063	574.252378185241	827.573576946046	317.211684175898	633.483560182902	897.741432460823	230.918443026871	583.390542863880	803.533787032914	43.857205272669	549.666133862304	962.983546867759	119.836689669698	595.686064770345	885.361464093631	42.363292004297	626.662738083784	1087.514145521333	84.996667904391	627.155968262270	501.351471707459	38.313680493438	414.640035877563	574.808565531447	34.485259692613	333.531570545291	659.165538203740	95.378998190699	358.505305658156	786.833170999341	42.088075330838	331.479594687043	835.161970905740	1098.128027421883	129.745843415592	1072.366205690009	989.529706330633	123.691190328216	580.317947344003	1136.579539514254	716.337411609715	536.564829817380	880.333097446943	736.086007148046	
21	52.917142857143	780.593786596725	957.372720121058	307.309808809848	556.974561913489	1005.629842772738	446.141819437645	754.614527655951	1429.474887329771	274.277272979288	838.437348334449	1362.860005320407	447.026244807828	737.365851066115	1440.338953872001	611.203332108661	735.576709640765	1493.546210938081	423.006527236117	771.574131789195	941.596761970291	582.091475883880	837.787795079023	760.089230782252	558.573897486974	782.104103591203	641.224190055047	626.737363204691	870.225949403086	598.067751935396	549.155573776535	898.548053322822	515.852270839509	565.712800778826	781.095695551148	731.143779791485	336.586066936285	666.040306450461	637.178897841930	271.863547402916	723.960122548113	545.158098780631	338.451857405084	708.858604121288	479.958757001663	348.237304566297	679.265572844042	413.930977895760	340.573443814916	583.906464646140	303.678879517677	291.016492221504	628.716582225021	192.370023439135	367.425893560343	882.012488179873	428.391803216653	573.883509426023	825.543592835593	313.946453905503	632.171278550918	896.932310408459	228.587971845748	582.222164666344	804.196192635088	42.110174380457	547.627910685176	963.484033019538	117.697797126767	594.179065491616	885.476218527400	40.958315807948	625.125011612842	1087.645735560268	82.384013944092	626.506444830139	494.599600598367	38.290437708224	414.590320650065	568.061681155388	34.467853131756	333.514258558897	652.393886025468	95.339196287085	358.562508082936	780.076884068118	41.965787280402	331.498384839955	833.214579202237	1096.319142175806	132.403332743071	1069.955280536270	986.604489975734	125.649672093427	583.007492093188	1133.463671887419	718.548653703217	542.050912543019	876.612650800642	737.459602753608	
